<svg width="244" height="58" viewBox="0 0 244 58" fill="none" xmlns="http://www.w3.org/2000/svg">
<rect width="121" height="58" rx="10.3571" fill="white"/>
<path d="M27.8182 24.3125C27.6193 23.6212 27.34 23.0104 26.9801 22.4801C26.6203 21.9403 26.1799 21.4858 25.6591 21.1165C25.1477 20.7377 24.5606 20.4489 23.8977 20.25C23.2443 20.0511 22.5199 19.9517 21.7244 19.9517C20.2377 19.9517 18.9309 20.321 17.804 21.0597C16.6866 21.7983 15.8153 22.8731 15.1903 24.2841C14.5653 25.6856 14.2528 27.3996 14.2528 29.4261C14.2528 31.4527 14.5606 33.1761 15.1761 34.5966C15.7917 36.017 16.6629 37.1013 17.7898 37.8494C18.9167 38.5881 20.2472 38.9574 21.7812 38.9574C23.1733 38.9574 24.3617 38.7112 25.3466 38.2188C26.3409 37.7169 27.0985 37.0114 27.6193 36.1023C28.1496 35.1932 28.4148 34.1184 28.4148 32.8778L29.6648 33.0625H22.1648V28.4318H34.3381V32.0966C34.3381 34.6534 33.7983 36.8504 32.7188 38.6875C31.6392 40.5152 30.1525 41.9261 28.2585 42.9205C26.3646 43.9053 24.196 44.3977 21.7528 44.3977C19.0256 44.3977 16.6297 43.7964 14.5653 42.5938C12.5009 41.3816 10.8911 39.6629 9.7358 37.4375C8.58996 35.2027 8.01705 32.5511 8.01705 29.483C8.01705 27.125 8.35795 25.0227 9.03977 23.1761C9.73106 21.3201 10.697 19.7481 11.9375 18.4602C13.178 17.1723 14.6222 16.1922 16.2699 15.5199C17.9176 14.8475 19.7027 14.5114 21.625 14.5114C23.2727 14.5114 24.8068 14.7528 26.2273 15.2358C27.6477 15.7093 28.9072 16.3816 30.0057 17.2528C31.1136 18.1241 32.018 19.161 32.7188 20.3636C33.4195 21.5568 33.8693 22.8731 34.0682 24.3125H27.8182ZM38.9581 44V14.9091H58.5604V19.9801H45.1087V26.9119H57.5518V31.983H45.1087V38.929H58.6172V44H38.9581ZM63.4503 44V14.9091H83.0526V19.9801H69.6009V26.9119H82.044V31.983H69.6009V38.929H83.1094V44H63.4503ZM87.9425 44V14.9091H94.093V27.7358H94.4766L104.945 14.9091H112.317L101.522 27.9347L112.445 44H105.087L97.1186 32.0398L94.093 35.733V44H87.9425Z" fill="black"/>
<path d="M145.196 25.0938H138.974C138.861 24.2888 138.629 23.5739 138.278 22.9489C137.928 22.3144 137.478 21.7746 136.929 21.3295C136.38 20.8845 135.745 20.5436 135.026 20.3068C134.315 20.0701 133.544 19.9517 132.71 19.9517C131.205 19.9517 129.893 20.3258 128.776 21.0739C127.658 21.8125 126.792 22.892 126.176 24.3125C125.561 25.7235 125.253 27.4375 125.253 29.4545C125.253 31.5284 125.561 33.2708 126.176 34.6818C126.801 36.0928 127.672 37.1581 128.79 37.8778C129.907 38.5975 131.2 38.9574 132.668 38.9574C133.491 38.9574 134.254 38.8485 134.955 38.6307C135.665 38.4129 136.295 38.0956 136.844 37.679C137.393 37.2528 137.848 36.7367 138.207 36.1307C138.577 35.5246 138.832 34.8333 138.974 34.0568L145.196 34.0852C145.035 35.4205 144.633 36.7083 143.989 37.9489C143.354 39.1799 142.497 40.2831 141.418 41.2585C140.348 42.2244 139.069 42.9915 137.582 43.5597C136.105 44.1184 134.434 44.3977 132.568 44.3977C129.973 44.3977 127.653 43.8106 125.608 42.6364C123.572 41.4621 121.962 39.7623 120.778 37.5369C119.604 35.3116 119.017 32.6174 119.017 29.4545C119.017 26.2822 119.614 23.5833 120.807 21.358C122 19.1326 123.619 17.4375 125.665 16.2727C127.71 15.0985 130.011 14.5114 132.568 14.5114C134.254 14.5114 135.816 14.7481 137.256 15.2216C138.705 15.6951 139.988 16.3864 141.105 17.2955C142.223 18.1951 143.132 19.2983 143.832 20.6051C144.543 21.9119 144.997 23.4081 145.196 25.0938ZM176.339 29.4545C176.339 32.6269 175.738 35.3258 174.536 37.5511C173.342 39.7765 171.714 41.4763 169.649 42.6506C167.594 43.8153 165.284 44.3977 162.717 44.3977C160.132 44.3977 157.812 43.8106 155.757 42.6364C153.702 41.4621 152.078 39.7623 150.885 37.5369C149.692 35.3116 149.095 32.6174 149.095 29.4545C149.095 26.2822 149.692 23.5833 150.885 21.358C152.078 19.1326 153.702 17.4375 155.757 16.2727C157.812 15.0985 160.132 14.5114 162.717 14.5114C165.284 14.5114 167.594 15.0985 169.649 16.2727C171.714 17.4375 173.342 19.1326 174.536 21.358C175.738 23.5833 176.339 26.2822 176.339 29.4545ZM170.104 29.4545C170.104 27.3996 169.796 25.6667 169.18 24.2557C168.574 22.8447 167.717 21.7746 166.609 21.0455C165.501 20.3163 164.204 19.9517 162.717 19.9517C161.231 19.9517 159.933 20.3163 158.825 21.0455C157.717 21.7746 156.856 22.8447 156.24 24.2557C155.634 25.6667 155.331 27.3996 155.331 29.4545C155.331 31.5095 155.634 33.2424 156.24 34.6534C156.856 36.0644 157.717 37.1345 158.825 37.8636C159.933 38.5928 161.231 38.9574 162.717 38.9574C164.204 38.9574 165.501 38.5928 166.609 37.8636C167.717 37.1345 168.574 36.0644 169.18 34.6534C169.796 33.2424 170.104 31.5095 170.104 29.4545ZM191.208 44H180.896V14.9091H191.293C194.219 14.9091 196.738 15.4915 198.85 16.6562C200.962 17.8116 202.586 19.4735 203.722 21.642C204.868 23.8106 205.441 26.4053 205.441 29.4261C205.441 32.4564 204.868 35.0606 203.722 37.2386C202.586 39.4167 200.952 41.0881 198.822 42.2528C196.701 43.4176 194.163 44 191.208 44ZM187.046 38.7301H190.952C192.771 38.7301 194.3 38.4081 195.54 37.7642C196.79 37.1108 197.728 36.1023 198.353 34.7386C198.987 33.3655 199.305 31.5947 199.305 29.4261C199.305 27.2765 198.987 25.5199 198.353 24.1562C197.728 22.7926 196.795 21.7888 195.555 21.1449C194.314 20.5009 192.785 20.179 190.967 20.179H187.046V38.7301ZM209.997 44V14.9091H229.599V19.9801H216.148V26.9119H228.591V31.983H216.148V38.929H229.656V44H209.997ZM237.913 44.3693C236.975 44.3693 236.17 44.0379 235.498 43.375C234.835 42.7027 234.504 41.8977 234.504 40.9602C234.504 40.0322 234.835 39.2367 235.498 38.5739C236.17 37.911 236.975 37.5795 237.913 37.5795C238.822 37.5795 239.617 37.911 240.299 38.5739C240.981 39.2367 241.322 40.0322 241.322 40.9602C241.322 41.5852 241.161 42.1581 240.839 42.679C240.526 43.1903 240.114 43.6023 239.603 43.9148C239.092 44.2178 238.528 44.3693 237.913 44.3693Z" fill="white"/>
</svg>
